<svg width="363" height="64" viewBox="0 0 363 64" fill="none" xmlns="http://www.w3.org/2000/svg">
<path d="M85.534 63V19.6H108.722C114.715 19.6 119.138 20.6747 121.99 22.824C124.842 24.932 126.268 27.6393 126.268 30.946C126.268 33.1367 125.648 35.1 124.408 36.836C123.209 38.5307 121.453 39.874 119.138 40.866C116.823 41.858 113.971 42.354 110.582 42.354L111.822 39.006C115.211 39.006 118.125 39.4813 120.564 40.432C123.044 41.3827 124.945 42.7673 126.268 44.586C127.632 46.3633 128.314 48.5127 128.314 51.034C128.314 54.7953 126.743 57.73 123.602 59.838C120.502 61.946 115.955 63 109.962 63H85.534ZM99.918 52.77H108.722C110.334 52.77 111.533 52.4807 112.318 51.902C113.145 51.3233 113.558 50.476 113.558 49.36C113.558 48.244 113.145 47.3967 112.318 46.818C111.533 46.2393 110.334 45.95 108.722 45.95H98.926V36.278H106.738C108.391 36.278 109.59 36.0093 110.334 35.472C111.119 34.8933 111.512 34.0873 111.512 33.054C111.512 31.9793 111.119 31.1733 110.334 30.636C109.59 30.0987 108.391 29.83 106.738 29.83H99.918V52.77ZM144.089 63.62C141.402 63.62 138.964 63.0827 136.773 62.008C134.624 60.892 132.929 59.1767 131.689 56.862C130.449 54.506 129.829 51.4887 129.829 47.81V29.086H143.841V45.392C143.841 47.7893 144.234 49.4633 145.019 50.414C145.804 51.3647 146.879 51.84 148.243 51.84C149.07 51.84 149.834 51.6333 150.537 51.22C151.281 50.7653 151.88 50.042 152.335 49.05C152.79 48.0167 153.017 46.6733 153.017 45.02V29.086H167.029V63H153.699V53.204L156.365 55.87C155.166 58.5153 153.451 60.4787 151.219 61.76C149.028 63 146.652 63.62 144.089 63.62ZM185.024 63.62C182.089 63.62 179.361 62.9173 176.84 61.512C174.36 60.0653 172.376 58.04 170.888 55.436C169.4 52.7907 168.656 49.6493 168.656 46.012C168.656 42.3747 169.4 39.254 170.888 36.65C172.376 34.0047 174.36 31.9793 176.84 30.574C179.361 29.1687 182.089 28.466 185.024 28.466C188 28.466 190.439 29.1067 192.34 30.388C194.241 31.628 195.647 33.55 196.556 36.154C197.465 38.7167 197.92 42.0027 197.92 46.012C197.92 50.0627 197.486 53.39 196.618 55.994C195.791 58.598 194.427 60.52 192.526 61.76C190.666 63 188.165 63.62 185.024 63.62ZM188.372 52.708C189.405 52.708 190.335 52.46 191.162 51.964C191.989 51.468 192.65 50.724 193.146 49.732C193.642 48.6987 193.89 47.4587 193.89 46.012C193.89 44.524 193.642 43.3047 193.146 42.354C192.65 41.362 191.989 40.618 191.162 40.122C190.335 39.626 189.405 39.378 188.372 39.378C187.339 39.378 186.409 39.626 185.582 40.122C184.755 40.618 184.094 41.362 183.598 42.354C183.102 43.3047 182.854 44.524 182.854 46.012C182.854 47.4587 183.102 48.6987 183.598 49.732C184.094 50.724 184.755 51.468 185.582 51.964C186.409 52.46 187.339 52.708 188.372 52.708ZM194.324 63V58.412L194.262 46.012L193.642 33.612V16.996H207.654V63H194.324ZM211.193 63V19.6H234.381C240.374 19.6 244.797 20.6747 247.649 22.824C250.501 24.932 251.927 27.6393 251.927 30.946C251.927 33.1367 251.307 35.1 250.067 36.836C248.868 38.5307 247.112 39.874 244.797 40.866C242.482 41.858 239.63 42.354 236.241 42.354L237.481 39.006C240.87 39.006 243.784 39.4813 246.223 40.432C248.703 41.3827 250.604 42.7673 251.927 44.586C253.291 46.3633 253.973 48.5127 253.973 51.034C253.973 54.7953 252.402 57.73 249.261 59.838C246.161 61.946 241.614 63 235.621 63H211.193ZM225.577 52.77H234.381C235.993 52.77 237.192 52.4807 237.977 51.902C238.804 51.3233 239.217 50.476 239.217 49.36C239.217 48.244 238.804 47.3967 237.977 46.818C237.192 46.2393 235.993 45.95 234.381 45.95H224.585V36.278H232.397C234.05 36.278 235.249 36.0093 235.993 35.472C236.778 34.8933 237.171 34.0873 237.171 33.054C237.171 31.9793 236.778 31.1733 235.993 30.636C235.249 30.0987 234.05 29.83 232.397 29.83H225.577V52.77ZM276.134 63V56.986L275.142 55.374V43.966C275.142 42.3127 274.625 41.052 273.592 40.184C272.6 39.316 270.967 38.882 268.694 38.882C267.165 38.882 265.615 39.13 264.044 39.626C262.473 40.0807 261.13 40.7213 260.014 41.548L255.55 32.31C257.534 31.07 259.911 30.1193 262.68 29.458C265.449 28.7967 268.157 28.466 270.802 28.466C276.63 28.466 281.135 29.768 284.318 32.372C287.542 34.976 289.154 39.1093 289.154 44.772V63H276.134ZM266.524 63.62C263.755 63.62 261.44 63.1447 259.58 62.194C257.72 61.2433 256.315 59.9827 255.364 58.412C254.413 56.8 253.938 55.0227 253.938 53.08C253.938 50.8893 254.496 49.0293 255.612 47.5C256.728 45.9707 258.423 44.8133 260.696 44.028C263.011 43.2427 265.925 42.85 269.438 42.85H276.506V49.608H271.67C270.182 49.608 269.087 49.856 268.384 50.352C267.723 50.8067 267.392 51.5093 267.392 52.46C267.392 53.2453 267.681 53.9067 268.26 54.444C268.88 54.94 269.707 55.188 270.74 55.188C271.691 55.188 272.559 54.94 273.344 54.444C274.171 53.9067 274.77 53.08 275.142 51.964L276.94 56.118C276.403 58.6393 275.266 60.52 273.53 61.76C271.794 63 269.459 63.62 266.524 63.62ZM290.87 63V54.94L308.912 34.852L311.206 39.316H291.366V29.086H322.552V37.146L304.51 57.234L302.216 52.77H323.234V63H290.87ZM344.891 63V56.986L343.899 55.374V43.966C343.899 42.3127 343.382 41.052 342.349 40.184C341.357 39.316 339.724 38.882 337.451 38.882C335.922 38.882 334.372 39.13 332.801 39.626C331.23 40.0807 329.887 40.7213 328.771 41.548L324.307 32.31C326.291 31.07 328.668 30.1193 331.437 29.458C334.206 28.7967 336.914 28.466 339.559 28.466C345.387 28.466 349.892 29.768 353.075 32.372C356.299 34.976 357.911 39.1093 357.911 44.772V63H344.891ZM335.281 63.62C332.512 63.62 330.197 63.1447 328.337 62.194C326.477 61.2433 325.072 59.9827 324.121 58.412C323.17 56.8 322.695 55.0227 322.695 53.08C322.695 50.8893 323.253 49.0293 324.369 47.5C325.485 45.9707 327.18 44.8133 329.453 44.028C331.768 43.2427 334.682 42.85 338.195 42.85H345.263V49.608H340.427C338.939 49.608 337.844 49.856 337.141 50.352C336.48 50.8067 336.149 51.5093 336.149 52.46C336.149 53.2453 336.438 53.9067 337.017 54.444C337.637 54.94 338.464 55.188 339.497 55.188C340.448 55.188 341.316 54.94 342.101 54.444C342.928 53.9067 343.527 53.08 343.899 51.964L345.697 56.118C345.16 58.6393 344.023 60.52 342.287 61.76C340.551 63 338.216 63.62 335.281 63.62Z" fill="url(#paint0_linear_107_11)"/>
<path d="M34.9879 8.36524L51.0438 18.2171L51.0438 8.36524L57.374 8.36524L57.3741 22.0981L57.374 28.482L35.5107 15.3462L4.76534 41.9163L0.665881 38.3339L34.9879 8.36524Z" fill="url(#paint1_linear_107_11)"/>
<path d="M7.31787 63.3439L7.31787 43.2945H13.4669L13.4669 58.418L63.3427 58.6693L63.3427 29.6622H69.4918V63.4142L7.31787 63.3439Z" fill="url(#paint2_linear_107_11)"/>
<path d="M16.5405 36.428L26.789 27.6211L30.8884 31.2036L22.348 38.8164V53.4448H16.5405L16.5405 36.428Z" fill="url(#paint3_linear_107_11)"/>
<defs>
<linearGradient id="paint0_linear_107_11" x1="222.5" y1="0" x2="222.5" y2="63" gradientUnits="userSpaceOnUse">
<stop stop-color="#FE8C00"/>
<stop offset="1" stop-color="#E13100"/>
</linearGradient>
<linearGradient id="paint1_linear_107_11" x1="36.5" y1="2.5" x2="37.1881" y2="11.1333" gradientUnits="userSpaceOnUse">
<stop stop-color="#FE8C00"/>
<stop offset="0.805885" stop-color="#F83600"/>
</linearGradient>
<linearGradient id="paint2_linear_107_11" x1="52.5" y1="-1.49998" x2="48.8302" y2="0.838401" gradientUnits="userSpaceOnUse">
<stop stop-color="#FE8C00"/>
<stop offset="1" stop-color="#F83600"/>
</linearGradient>
<linearGradient id="paint3_linear_107_11" x1="2" y1="27.5" x2="14.2743" y2="46.4401" gradientUnits="userSpaceOnUse">
<stop stop-color="#FE8C00"/>
<stop offset="0.557192" stop-color="#FF5D00"/>
<stop offset="0.557292" stop-color="#FF5D00"/>
<stop offset="0.726063" stop-color="#FF3800"/>
</linearGradient>
</defs>
</svg>
