<?xml version="1.0" encoding="utf-8"?><svg viewBox="0 0 31 31" xmlns="http://www.w3.org/2000/svg" xmlns:xlink="http://www.w3.org/1999/xlink"><style>:root>svg{display:none}:root>svg:target{display:block}</style><svg fill="none" viewBox="0 0 31 31" id="facebook" xmlns="http://www.w3.org/2000/svg"><path d="M30.08 15.5C30.08 7.45 23.548.915 15.498.915S.914 7.449.914 15.499c0 7.059 5.017 12.936 11.667 14.292v-9.917H9.664V15.5h2.917v-3.646a5.11 5.11 0 0 1 5.104-5.104h3.646v4.375h-2.917c-.802 0-1.458.657-1.458 1.459v2.916h4.375v4.375h-4.375V30.01c7.364-.73 13.125-6.942 13.125-14.51Z" fill="#F8F8F8"/></svg><svg fill="none" viewBox="0 0 31 31" id="inst" xmlns="http://www.w3.org/2000/svg"><path d="M9.372.916h12.25c4.667 0 8.459 3.792 8.459 8.458v12.25a8.458 8.458 0 0 1-8.459 8.459H9.372c-4.666 0-8.458-3.792-8.458-8.459V9.374A8.458 8.458 0 0 1 9.372.916Zm-.291 2.917a5.25 5.25 0 0 0-5.25 5.25v12.833a5.247 5.247 0 0 0 5.25 5.25h12.833a5.25 5.25 0 0 0 5.25-5.25V9.083a5.247 5.247 0 0 0-5.25-5.25H9.081ZM23.154 6.02a1.823 1.823 0 1 1 0 3.646 1.823 1.823 0 0 1 0-3.646Zm-7.657 2.188a7.292 7.292 0 1 1 0 14.583 7.292 7.292 0 0 1 0-14.583Zm0 2.916a4.375 4.375 0 1 0 0 8.75 4.375 4.375 0 0 0 0-8.75Z" fill="#F8F8F8"/></svg></svg>