<?xml version="1.0" encoding="utf-8"?><svg viewBox="0 0 31 31" xmlns="http://www.w3.org/2000/svg" xmlns:xlink="http://www.w3.org/1999/xlink"><style>:root>svg{display:none}:root>svg:target{display:block}</style><svg fill="none" viewBox="0 0 28 30" id="backet-services" xmlns="http://www.w3.org/2000/svg"><path d="M7.946 20.261a1.095 1.095 0 0 0 2.108-.583l-2.108.583Zm-6.28-15.37a1.094 1.094 0 1 0-.586 2.107l.586-2.107ZM26.44 20.932a1.094 1.094 0 1 0-.551-2.116l.551 2.116Zm-14.57 2.675c.452 1.633-.54 3.358-2.295 3.815l.55 2.116c2.883-.748 4.644-3.649 3.854-6.515l-2.109.584Zm-2.295 3.815c-1.768.46-3.541-.567-3.996-2.215l-2.109.583c.787 2.851 3.783 4.495 6.654 3.748l-.55-2.116Zm-3.996-2.215c-.452-1.634.54-3.359 2.295-3.815l-.55-2.115c-2.883.748-4.646 3.647-3.854 6.513l2.109-.583Zm2.295-3.815c1.768-.46 3.541.567 3.996 2.215l2.109-.584c-.788-2.85-3.783-4.494-6.655-3.747l.55 2.116Zm2.18-1.714L6.916 8.318 4.807 8.9l3.139 11.36 2.108-.583Zm-5.903-14.1-2.485-.687-.586 2.107 2.486.69.585-2.11Zm2.765 2.74a3.948 3.948 0 0 0-2.765-2.74l-.582 2.11c.62.172 1.08.643 1.238 1.213l2.109-.583Zm6.285 16.056 13.24-3.442-.55-2.116-13.24 3.442.55 2.116Z" fill="#F8F8F8"/><path d="M10.95 10.731c-.708-2.56-1.061-3.84-.46-4.848.6-1.009 1.919-1.351 4.559-2.038l2.8-.727c2.639-.685 3.959-1.03 4.999-.447 1.04.583 1.394 1.862 2.1 4.423l.75 2.715c.708 2.56 1.062 3.84.462 4.85-.601 1.007-1.921 1.351-4.56 2.036l-2.8.728c-2.64.686-3.96 1.028-5 .447-1.04-.584-1.393-1.863-2.1-4.422l-.75-2.717Z" stroke="#F8F8F8" stroke-width="3"/></svg><svg fill="none" viewBox="0 0 31 31" id="card-services" xmlns="http://www.w3.org/2000/svg"><path d="M24.703 5.813H6.297a3.39 3.39 0 0 0-3.39 3.39v12.594a3.39 3.39 0 0 0 3.39 3.39h18.406a3.39 3.39 0 0 0 3.39-3.39V9.203a3.39 3.39 0 0 0-3.39-3.39Z" stroke="#F8F8F8" stroke-width="2.5" stroke-linecap="round" stroke-linejoin="round"/><path d="M2.906 11.625h25.188M7.75 18.165h2.906v1.21H7.75v-1.21Z" stroke="#F8F8F8" stroke-width="2.5" stroke-linejoin="round"/></svg><svg fill="none" viewBox="0 0 31 31" id="clock" xmlns="http://www.w3.org/2000/svg"><path d="M15.499 3.024C8.611 3.024 3.023 8.612 3.023 15.5c0 6.888 5.588 12.476 12.476 12.476 6.888 0 12.476-5.588 12.476-12.476 0-6.888-5.588-12.476-12.476-12.476Z" stroke="#F8F8F8" stroke-width="3" stroke-miterlimit="10"/><path d="M15.5 7.75v8.719h5.813" stroke="#F8F8F8" stroke-width="3" stroke-linecap="round" stroke-linejoin="round"/></svg><svg fill="none" viewBox="0 0 31 31" id="facebook" xmlns="http://www.w3.org/2000/svg"><path d="M30.08 15.5C30.08 7.45 23.548.915 15.498.915S.914 7.449.914 15.499c0 7.059 5.017 12.936 11.667 14.292v-9.917H9.664V15.5h2.917v-3.646a5.11 5.11 0 0 1 5.104-5.104h3.646v4.375h-2.917c-.802 0-1.458.657-1.458 1.459v2.916h4.375v4.375h-4.375V30.01c7.364-.73 13.125-6.942 13.125-14.51Z" fill="#F8F8F8"/></svg><svg fill="none" viewBox="0 0 31 31" id="inst" xmlns="http://www.w3.org/2000/svg"><path d="M9.372.916h12.25c4.667 0 8.459 3.792 8.459 8.458v12.25a8.458 8.458 0 0 1-8.459 8.459H9.372c-4.666 0-8.458-3.792-8.458-8.459V9.374A8.458 8.458 0 0 1 9.372.916Zm-.291 2.917a5.25 5.25 0 0 0-5.25 5.25v12.833a5.247 5.247 0 0 0 5.25 5.25h12.833a5.25 5.25 0 0 0 5.25-5.25V9.083a5.247 5.247 0 0 0-5.25-5.25H9.081ZM23.154 6.02a1.823 1.823 0 1 1 0 3.646 1.823 1.823 0 0 1 0-3.646Zm-7.657 2.188a7.292 7.292 0 1 1 0 14.583 7.292 7.292 0 0 1 0-14.583Zm0 2.916a4.375 4.375 0 1 0 0 8.75 4.375 4.375 0 0 0 0-8.75Z" fill="#F8F8F8"/></svg><svg fill="none" viewBox="0 0 25 25" id="order" xmlns="http://www.w3.org/2000/svg"><path d="M11.025 22.833h11.81M19.882 6.595l1.476 1.476m.738-5.166a3.13 3.13 0 0 1 0 4.428L8.073 21.357l-5.905 1.476 1.476-5.822 14.03-14.1a3.124 3.124 0 0 1 4.228-.185l.194.179Z" stroke="#F8F8F8" stroke-width="2.5" stroke-linecap="round" stroke-linejoin="round"/></svg><svg fill="none" viewBox="0 0 29 28" id="phone" xmlns="http://www.w3.org/2000/svg"><path d="m27.09 23.66.76.806-.76-.805ZM8.993 20.398l.758-.805-.76.805h.002ZM3.068 4.366l-.758-.804.76.805-.002-.001Zm17.14 14.766.656-.686-1.52-1.61-.652.686 1.516 1.61Zm2.851-.973 2.744 1.572 1.027-1.995-2.743-1.57-1.028 1.993Zm3.271 4.696-2.039 2.139 1.518 1.609 2.039-2.137-1.518-1.61Zm-3.282 2.826c-2.082.206-7.466.023-13.298-6.089l-1.52 1.61c6.364 6.67 12.421 6.996 15.019 6.74l-.203-2.26h.002ZM9.75 19.592C4.192 13.765 3.27 8.866 3.155 6.74l-2.15.129C1.148 9.544 2.29 14.974 8.23 21.2l1.519-1.609Zm1.974-9.354.412-.432-1.516-1.61-.412.432 1.517 1.609-.001.001Zm.74-5.934-1.81-2.55L8.93 3.118l1.809 2.547 1.724-1.36ZM4.564 1.199 2.311 3.561l1.52 1.61L6.082 2.81 4.565 1.2Zm6.4 8.234c-.76-.805-.76-.805-.76-.802h-.003l-.004.006a1.604 1.604 0 0 0-.183.238c-.077.12-.162.28-.234.481a3.34 3.34 0 0 0-.126 1.621c.192 1.31 1.048 3.04 3.24 5.337l1.518-1.61c-2.052-2.15-2.54-3.458-2.63-4.075-.043-.294.001-.439.014-.472.007-.021.01-.023 0-.01a.419.419 0 0 1-.043.06l-.014.015a.37.37 0 0 1-.015.013l-.76-.802Zm1.93 6.88c2.191 2.298 3.841 3.194 5.085 3.394.636.103 1.148.021 1.537-.131.218-.085.421-.206.603-.358.025-.021.049-.044.072-.068l.01-.009.004-.004.002-.003s.001-.002-.758-.807c-.761-.805-.757-.807-.757-.807l.003-.003.003-.003.008-.008.015-.015a.549.549 0 0 1 .054-.045c.015-.01.01-.006-.01.003-.035.014-.176.06-.46.015-.594-.097-1.843-.611-3.893-2.76l-1.519 1.61Zm-2.24-14.56C9.19-.305 6.312-.632 4.564 1.2l1.518 1.61c.764-.8 2.119-.717 2.847.308l1.723-1.364h.001ZM3.156 6.741c-.029-.524.2-1.072.673-1.568l-1.52-1.61C1.539 4.37.93 5.514 1.005 6.867l2.152-.127ZM24.29 24.994c-.393.415-.818.648-1.242.689l.2 2.26c1.055-.105 1.918-.665 2.561-1.339l-1.519-1.61ZM12.136 9.806c1.414-1.482 1.52-3.824.329-5.5l-1.724 1.36c.578.816.492 1.886-.123 2.532l1.518 1.608Zm13.669 9.927c1.172.672 1.355 2.255.526 3.124l1.52 1.609c1.923-2.018 1.33-5.382-1.02-6.728l-1.026 1.995Zm-4.941-1.285c.551-.578 1.439-.72 2.197-.288l1.028-1.993c-1.557-.893-3.486-.646-4.744.67l1.519 1.61Z" fill="#F8F8F8"/></svg></svg>