<?xml version="1.0" encoding="utf-8"?><svg viewBox="0 0 221 32" xmlns="http://www.w3.org/2000/svg" xmlns:xlink="http://www.w3.org/1999/xlink"><style>:root>svg{display:none}:root>svg:target{display:block}</style><svg fill="none" viewBox="0 0 221 24" id="arrow-swiper" xmlns="http://www.w3.org/2000/svg"><path d="M.94 13.06a1.5 1.5 0 0 1 0-2.12l9.545-9.547a1.5 1.5 0 1 1 2.122 2.122L4.12 12l8.486 8.485a1.5 1.5 0 1 1-2.122 2.122L.94 13.06ZM221 13.5H2v-3h219v3Z" fill="#FF9500"/></svg><svg viewBox="0 0 41 32" fill="none" id="backet-for-btn" xmlns="http://www.w3.org/2000/svg"><path d="M32.995 15.604c-4.087 0-7.441-3.34-7.441-7.442 0-4.072 3.354-7.441 7.441-7.441 4.072 0 7.442 3.369 7.442 7.441 0 4.072-3.414 7.441-7.442 7.441Zm-20.097 9.14c-2.125 0-3.223-1.304-3.53-3.384L7.022 5.276h-4.95c-.587 0-1.085-.512-1.085-1.113 0-.586.498-1.099 1.084-1.099h5.142c1.494 0 1.904.572 2.05 1.7l.279 1.86h14.106c-.102.66-.146 1.538-.073 2.212H9.866l1.244 8.496 17.52-.015c.41 0 .688-.131.908-.424a8.725 8.725 0 0 0 3.545.732c-.557 1.26-1.538 1.904-3.061 1.904h-18.59l.235 1.538c.132.894.645 1.48 1.48 1.48h16.845c.572 0 1.07.469 1.07 1.098 0 .63-.498 1.1-1.07 1.1H12.897Zm20.097-11.909c.542 0 .894-.366.894-.908V9.07h2.856c.542 0 .908-.351.908-.908 0-.542-.366-.893-.908-.893H33.89V4.412c0-.542-.352-.908-.894-.908s-.908.366-.908.908V7.27H29.23c-.541 0-.893.351-.893.893 0 .557.352.908.893.908h2.857v2.857c0 .542.366.908.908.908Zm-18.94 19.028c-1.333 0-2.388-1.04-2.388-2.373a2.366 2.366 0 0 1 2.388-2.373 2.363 2.363 0 0 1 2.373 2.373 2.354 2.354 0 0 1-2.373 2.373Zm13.696 0a2.366 2.366 0 0 1-2.388-2.373 2.376 2.376 0 0 1 2.388-2.373 2.366 2.366 0 0 1 2.388 2.373c0 1.333-1.055 2.373-2.388 2.373Z" fill="#fff"/></svg><svg fill="none" viewBox="0 0 31 31" id="facebook" xmlns="http://www.w3.org/2000/svg"><path d="M30.08 15.5C30.08 7.45 23.548.915 15.498.915S.914 7.449.914 15.499c0 7.059 5.017 12.936 11.667 14.292v-9.917H9.664V15.5h2.917v-3.646a5.11 5.11 0 0 1 5.104-5.104h3.646v4.375h-2.917c-.802 0-1.458.657-1.458 1.459v2.916h4.375v4.375h-4.375V30.01c7.364-.73 13.125-6.942 13.125-14.51Z" fill="#F8F8F8"/></svg><svg fill="none" viewBox="0 0 31 31" id="inst" xmlns="http://www.w3.org/2000/svg"><path d="M9.372.916h12.25c4.667 0 8.459 3.792 8.459 8.458v12.25a8.458 8.458 0 0 1-8.459 8.459H9.372c-4.666 0-8.458-3.792-8.458-8.459V9.374A8.458 8.458 0 0 1 9.372.916Zm-.291 2.917a5.25 5.25 0 0 0-5.25 5.25v12.833a5.247 5.247 0 0 0 5.25 5.25h12.833a5.25 5.25 0 0 0 5.25-5.25V9.083a5.247 5.247 0 0 0-5.25-5.25H9.081ZM23.154 6.02a1.823 1.823 0 1 1 0 3.646 1.823 1.823 0 0 1 0-3.646Zm-7.657 2.188a7.292 7.292 0 1 1 0 14.583 7.292 7.292 0 0 1 0-14.583Zm0 2.916a4.375 4.375 0 1 0 0 8.75 4.375 4.375 0 0 0 0-8.75Z" fill="#F8F8F8"/></svg><svg viewBox="0 0 30 28" fill="none" id="like" xmlns="http://www.w3.org/2000/svg"><path d="M.735 9.278c0-5.185 3.56-8.847 8.306-8.847 2.71 0 4.936 1.303 6.24 3.266 1.333-1.977 3.53-3.266 6.24-3.266 4.747 0 8.306 3.662 8.306 8.847 0 6.24-5.23 12.378-13.476 17.652-.323.19-.762.395-1.07.395-.307 0-.747-.205-1.054-.395C5.965 21.656.735 15.519.735 9.278Zm2.359 0c0 5.45 5.757 11.324 11.894 15.396.132.102.235.176.293.176.059 0 .161-.074.308-.176 6.123-4.072 11.88-9.947 11.88-15.396 0-3.896-2.52-6.489-5.918-6.489-2.74 0-4.263 1.743-5.274 3.179-.425.571-.644.747-.996.747-.351 0-.6-.161-.996-.747-.937-1.465-2.52-3.179-5.273-3.179-3.399 0-5.918 2.593-5.918 6.49Z" fill="#fff"/></svg></svg>