<svg width="28" height="30" viewBox="0 0 28 30" fill="none" xmlns="http://www.w3.org/2000/svg">
<path d="M7.94561 20.2614C7.98392 20.3998 8.04912 20.5294 8.13749 20.6427C8.22586 20.7559 8.33568 20.8507 8.46067 20.9215C8.58566 20.9923 8.72338 21.0378 8.86596 21.0554C9.00854 21.073 9.15319 21.0624 9.29166 21.0241C9.43012 20.9858 9.55968 20.9206 9.67295 20.8322C9.78621 20.7438 9.88096 20.634 9.95178 20.509C10.0226 20.384 10.0681 20.2463 10.0857 20.1037C10.1033 19.9612 10.0927 19.8165 10.0544 19.678L7.94561 20.2614ZM1.66603 4.89055C1.52702 4.84995 1.38134 4.83735 1.23743 4.8535C1.09351 4.86965 0.95424 4.91421 0.827687 4.98461C0.701134 5.055 0.58982 5.14983 0.500205 5.26359C0.410589 5.37734 0.344456 5.50776 0.305642 5.64728C0.266829 5.7868 0.256107 5.93263 0.2741 6.07633C0.292093 6.22002 0.338442 6.35871 0.410458 6.48435C0.482475 6.60999 0.578724 6.72007 0.693621 6.80822C0.808519 6.89637 0.939777 6.96082 1.07978 6.99784L1.66603 4.89055ZM26.4402 20.9322C26.5826 20.8993 26.717 20.8381 26.8354 20.7524C26.9538 20.6667 27.0538 20.558 27.1295 20.433C27.2052 20.308 27.255 20.169 27.2761 20.0244C27.2972 19.8797 27.2891 19.7323 27.2522 19.5909C27.2154 19.4494 27.1505 19.3168 27.0616 19.2008C26.9726 19.0848 26.8613 18.9879 26.7342 18.9156C26.6071 18.8434 26.4668 18.7974 26.3216 18.7803C26.1765 18.7632 26.0293 18.7754 25.8889 18.8162L26.4402 20.9322ZM11.87 23.6068C12.3221 25.2401 11.3304 26.9653 9.57457 27.4218L10.1244 29.5378C13.0075 28.7897 14.7692 25.8891 13.9787 23.0235L11.87 23.6068ZM9.57457 27.4218C7.80707 27.8812 6.03374 26.8545 5.57874 25.2066L3.46999 25.7899C4.25749 28.641 7.25291 30.2845 10.1244 29.5378L9.57457 27.4218ZM5.57874 25.2066C5.12666 23.5733 6.11832 21.8481 7.87416 21.3916L7.32436 19.277C4.44124 20.0251 2.67811 22.9243 3.46999 25.7899L5.57874 25.2066ZM7.87416 21.3916C9.64166 20.9322 11.415 21.9589 11.87 23.6068L13.9787 23.0235C13.1912 20.1724 10.1958 18.5289 7.32436 19.2755L7.87416 21.3916ZM10.0544 19.678L6.91603 8.31763L4.80728 8.90097L7.94561 20.2614L10.0544 19.678ZM4.15103 5.57888L1.66603 4.89055L1.07978 6.99784L3.56624 7.68763L4.15103 5.57888ZM6.91603 8.31763C6.731 7.66116 6.37905 7.06383 5.89447 6.58386C5.4099 6.10388 4.80924 5.75764 4.15103 5.57888L3.56916 7.68763C4.18895 7.85972 4.64978 8.33076 4.80728 8.90097L6.91603 8.31763ZM13.2014 24.3739L26.4402 20.9322L25.8904 18.8162L12.6502 22.2578L13.2014 24.3739Z" fill="#F8F8F8"/>
<path d="M10.9491 10.731C10.2418 8.17158 9.88888 6.89117 10.4897 5.88346C11.0891 4.87429 12.4089 4.53158 15.0485 3.84471L17.8485 3.11846C20.488 2.43304 21.8078 2.08888 22.8476 2.67075C23.8874 3.25408 24.2418 4.53304 24.9476 7.09388L25.6987 9.80929C26.406 12.3687 26.7603 13.6491 26.1595 14.6583C25.5587 15.666 24.2389 16.0101 21.5993 16.6955L18.7993 17.4233C16.1597 18.1087 14.8399 18.4514 13.8001 17.8695C12.7603 17.2862 12.4074 16.0072 11.7001 13.4478L10.9491 10.731Z" stroke="#F8F8F8" stroke-width="3"/>
</svg>
