<svg width="42" height="46" viewBox="0 0 42 46" fill="none" xmlns="http://www.w3.org/2000/svg">
<path fill-rule="evenodd" clip-rule="evenodd" d="M30.6615 7.50454H30.1164C30.1164 3.75669 27.1181 0.717529 23.3021 0.717529H18.941C15.125 0.717529 12.1267 3.75669 12.1267 7.50454H10.4913H9.67355H3.13185C1.76899 7.50454 0.678711 8.51851 0.678711 9.76688C0.678711 11.018 1.76899 12.0292 3.13185 12.0292H5.31242V39.18C5.31242 42.9279 8.31069 45.967 12.1267 45.967H30.1164C33.9324 45.967 36.9306 42.9279 36.9306 39.18V12.0292H39.1112C40.4741 12.0292 41.5643 11.018 41.5643 9.76688C41.5643 8.51851 40.4741 7.50454 39.1112 7.50454H32.5695H32.2969H30.6615ZM32.2962 12.0292H27.9351H25.7545H16.4871H14.3065H9.67282V16.5539V39.18C9.67282 40.4284 10.7631 41.4424 12.126 41.4424H30.1156C31.4785 41.4424 32.2962 40.4284 32.2962 39.18V16.5539V12.0292ZM16.4871 7.50461H18.9402H21.1208H23.3014H25.7545C25.7545 6.25624 24.6642 5.24227 23.3014 5.24227H18.9402C17.5774 5.24227 16.4871 6.25624 16.4871 7.50461ZM16.4876 16.5539C17.8505 16.5539 18.9408 17.5679 18.9408 18.8163V34.6554C18.9408 35.9037 17.8505 36.9177 16.4876 36.9177C15.3973 36.9177 14.3071 35.9037 14.3071 34.6554V18.8163C14.3071 17.5679 15.3973 16.5539 16.4876 16.5539ZM27.9351 18.8163C27.9351 17.5679 26.8448 16.5539 25.7545 16.5539C24.3916 16.5539 23.3014 17.5679 23.3014 18.8163V34.6554C23.3014 35.9037 24.3916 36.9177 25.7545 36.9177C26.8448 36.9177 27.9351 35.9037 27.9351 34.6554V18.8163Z" fill="black"/>
</svg>
