<svg width="31" height="31" viewBox="0 0 31 31" fill="none" xmlns="http://www.w3.org/2000/svg">
<path d="M9.3724 0.916016H21.6224C26.2891 0.916016 30.0807 4.70768 30.0807 9.37435V21.6243C30.0807 23.8676 29.1896 26.019 27.6033 27.6053C26.0171 29.1915 23.8657 30.0827 21.6224 30.0827H9.3724C4.70573 30.0827 0.914062 26.291 0.914062 21.6243V9.37435C0.914063 7.13106 1.80521 4.97965 3.39145 3.3934C4.9777 1.80716 7.12911 0.916016 9.3724 0.916016ZM9.08073 3.83268C7.68834 3.83268 6.35298 4.38581 5.36842 5.37037C4.38385 6.35494 3.83073 7.6903 3.83073 9.08268V21.916C3.83073 24.8181 6.17865 27.166 9.08073 27.166H21.9141C23.3064 27.166 24.6418 26.6129 25.6264 25.6283C26.6109 24.6438 27.1641 23.3084 27.1641 21.916V9.08268C27.1641 6.1806 24.8161 3.83268 21.9141 3.83268H9.08073ZM23.1536 6.02018C23.6371 6.02018 24.1008 6.21224 24.4426 6.5541C24.7845 6.89597 24.9766 7.35963 24.9766 7.8431C24.9766 8.32657 24.7845 8.79023 24.4426 9.1321C24.1008 9.47396 23.6371 9.66602 23.1536 9.66602C22.6702 9.66602 22.2065 9.47396 21.8646 9.1321C21.5228 8.79023 21.3307 8.32657 21.3307 7.8431C21.3307 7.35963 21.5228 6.89597 21.8646 6.5541C22.2065 6.21224 22.6702 6.02018 23.1536 6.02018ZM15.4974 8.20768C17.4313 8.20768 19.2859 8.97591 20.6534 10.3434C22.0208 11.7108 22.7891 13.5655 22.7891 15.4993C22.7891 17.4332 22.0208 19.2879 20.6534 20.6553C19.2859 22.0228 17.4313 22.791 15.4974 22.791C13.5635 22.791 11.7089 22.0228 10.3414 20.6553C8.97396 19.2879 8.20573 17.4332 8.20573 15.4993C8.20573 13.5655 8.97396 11.7108 10.3414 10.3434C11.7089 8.97591 13.5635 8.20768 15.4974 8.20768ZM15.4974 11.1243C14.3371 11.1243 13.2243 11.5853 12.4038 12.4058C11.5833 13.2262 11.1224 14.339 11.1224 15.4993C11.1224 16.6597 11.5833 17.7725 12.4038 18.5929C13.2243 19.4134 14.3371 19.8743 15.4974 19.8743C16.6577 19.8743 17.7705 19.4134 18.591 18.5929C19.4115 17.7725 19.8724 16.6597 19.8724 15.4993C19.8724 14.339 19.4115 13.2262 18.591 12.4058C17.7705 11.5853 16.6577 11.1243 15.4974 11.1243Z" fill="#F8F8F8"/>
</svg>
