<svg  viewBox="0 0 30 28" fill="none" xmlns="http://www.w3.org/2000/svg">
<path d="M0.735352 9.27832C0.735352 4.09277 4.29492 0.430664 9.04102 0.430664C11.751 0.430664 13.9775 1.73438 15.2812 3.69727C16.6143 1.71973 18.8115 0.430664 21.5215 0.430664C26.2676 0.430664 29.8271 4.09277 29.8271 9.27832C29.8271 15.5186 24.5977 21.6562 16.3506 26.9297C16.0283 27.1201 15.5889 27.3252 15.2812 27.3252C14.9736 27.3252 14.5342 27.1201 14.2266 26.9297C5.96484 21.6562 0.735352 15.5186 0.735352 9.27832ZM3.09375 9.27832C3.09375 14.7275 8.85059 20.6016 14.9883 24.6738C15.1201 24.7764 15.2227 24.8496 15.2812 24.8496C15.3398 24.8496 15.4424 24.7764 15.5889 24.6738C21.7119 20.6016 27.4688 14.7275 27.4688 9.27832C27.4688 5.38184 24.9492 2.78906 21.5508 2.78906C18.8115 2.78906 17.2881 4.53223 16.2773 5.96777C15.8525 6.53906 15.6328 6.71484 15.2812 6.71484C14.9297 6.71484 14.6807 6.55371 14.2852 5.96777C13.3477 4.50293 11.7656 2.78906 9.01172 2.78906C5.61328 2.78906 3.09375 5.38184 3.09375 9.27832Z" fill="white"/>
</svg>
