<svg width="71" height="64" viewBox="0 0 71 64" fill="none" xmlns="http://www.w3.org/2000/svg">
<path d="M34.9879 8.36524L51.0438 18.2171L51.0438 8.36524L57.374 8.36524L57.3741 22.0981L57.374 28.482L35.5107 15.3462L4.76534 41.9163L0.665881 38.3339L34.9879 8.36524Z" fill="url(#paint0_linear_115_3)"/>
<path d="M7.31787 63.3439L7.31787 43.2945H13.4669L13.4669 58.418L63.3427 58.6693L63.3427 29.6622H69.4918V63.4142L7.31787 63.3439Z" fill="url(#paint1_linear_115_3)"/>
<path d="M16.5405 36.428L26.789 27.6211L30.8884 31.2036L22.348 38.8164V53.4448H16.5405L16.5405 36.428Z" fill="url(#paint2_linear_115_3)"/>
<defs>
<linearGradient id="paint0_linear_115_3" x1="36.5" y1="2.5" x2="37.1881" y2="11.1333" gradientUnits="userSpaceOnUse">
<stop stop-color="#FE8C00"/>
<stop offset="0.805885" stop-color="#F83600"/>
</linearGradient>
<linearGradient id="paint1_linear_115_3" x1="52.5" y1="-1.49998" x2="48.8302" y2="0.838401" gradientUnits="userSpaceOnUse">
<stop stop-color="#FE8C00"/>
<stop offset="1" stop-color="#F83600"/>
</linearGradient>
<linearGradient id="paint2_linear_115_3" x1="2" y1="27.5" x2="14.2743" y2="46.4401" gradientUnits="userSpaceOnUse">
<stop stop-color="#FE8C00"/>
<stop offset="0.557192" stop-color="#FF5D00"/>
<stop offset="0.557292" stop-color="#FF5D00"/>
<stop offset="0.726063" stop-color="#FF3800"/>
</linearGradient>
</defs>
</svg>
