<svg width="29" height="28" viewBox="0 0 29 28" fill="none" xmlns="http://www.w3.org/2000/svg">
<path d="M27.0909 23.6606L27.8504 24.4658L27.0895 23.6606H27.0909ZM8.9917 20.3974L9.74979 19.5921L8.99027 20.3974H8.9917ZM3.06775 4.3658L2.30966 3.5621L3.06918 4.36731L3.06775 4.3658ZM20.2079 19.132L20.864 18.4464L19.3436 16.836L18.6917 17.5216L20.2079 19.132ZM23.0593 18.1588L25.803 19.7314L26.8296 17.7365L24.0873 16.1655L23.0593 18.1588ZM26.33 22.8554L24.2912 24.994L25.8088 26.6029L27.8476 24.4658L26.33 22.8554ZM23.0478 25.6812C20.966 25.887 15.5819 25.7039 9.74979 19.5921L8.23075 21.2011C14.5941 27.8713 20.6515 28.1982 23.2488 27.9424L23.0464 25.6812H23.0478ZM9.74979 19.5921C4.19195 13.765 3.27019 8.86559 3.15533 6.73905L1.00456 6.8677C1.14813 9.54367 2.28956 14.9743 8.23075 21.2011L9.74979 19.5921ZM11.724 10.2384L12.136 9.80551L10.6199 8.1966L10.2078 8.62797L11.7254 10.2369L11.724 10.2384ZM12.4634 4.30374L10.6543 1.75492L8.92997 3.11712L10.739 5.66443L12.4634 4.30374ZM4.56525 1.19945L2.3111 3.56059L3.83014 5.17101L6.08285 2.80987L4.56525 1.19945ZM10.9659 9.43318C10.2049 8.62797 10.2049 8.62797 10.2049 8.63099H10.2021L10.1977 8.63705C10.13 8.70998 10.0689 8.78955 10.0154 8.87467C9.93787 8.99576 9.85316 9.15468 9.78137 9.35599C9.60654 9.87561 9.563 10.4343 9.65503 10.977C9.84742 12.2862 10.7031 14.0162 12.8941 16.3138L14.4131 14.7034C12.3614 12.5541 11.8733 11.2464 11.7828 10.6289C11.7398 10.3353 11.7843 10.19 11.7972 10.1567C11.8044 10.1355 11.8072 10.134 11.7972 10.1476C11.7845 10.1686 11.7701 10.1883 11.7541 10.2066L11.7398 10.2217C11.7351 10.2264 11.7303 10.231 11.7254 10.2354L10.9644 9.43318H10.9659ZM12.8941 16.3138C15.0865 18.6114 16.7362 19.5074 17.9796 19.7072C18.6156 19.8101 19.1282 19.7284 19.5173 19.5755C19.7349 19.4906 19.9384 19.3701 20.1203 19.2183C20.145 19.1965 20.169 19.1738 20.1921 19.1502L20.2021 19.1411L20.2064 19.1366L20.2079 19.1335C20.2079 19.1335 20.2093 19.132 19.4498 18.3268C18.6888 17.5216 18.6932 17.5201 18.6932 17.5201L18.696 17.5171L18.6989 17.514L18.7075 17.5065L18.7219 17.4913C18.7391 17.475 18.7573 17.4598 18.7764 17.4459C18.7908 17.4353 18.7865 17.4399 18.7664 17.449C18.7305 17.4626 18.5898 17.5095 18.3069 17.4641C17.7125 17.3672 16.4634 16.8526 14.4131 14.7034L12.8941 16.3138ZM10.6543 1.75341C9.18984 -0.305024 6.31257 -0.631951 4.56525 1.19945L6.08285 2.80987C6.84667 2.0092 8.20203 2.09244 8.92997 3.11712L10.6529 1.75341H10.6543ZM3.15676 6.74057C3.12805 6.21688 3.35634 5.66897 3.83014 5.17252L2.30966 3.5621C1.53866 4.37034 0.931332 5.51459 1.00456 6.8677L3.15676 6.74057ZM24.2912 24.994C23.8978 25.4087 23.4728 25.6418 23.0493 25.6827L23.2488 27.9424C24.3041 27.838 25.167 27.278 25.8102 26.6044L24.2912 24.994ZM12.136 9.80551C13.5503 8.32374 13.6551 5.98228 12.4648 4.30526L10.7405 5.66594C11.3191 6.48175 11.2329 7.55183 10.6184 8.19812L12.136 9.80551ZM25.8045 19.7329C26.9775 20.4049 27.1598 21.9881 26.3314 22.8569L27.8504 24.4658C29.7744 22.4482 29.1814 19.0836 26.8311 17.738L25.8045 19.7329ZM20.864 18.4479C21.4154 17.8697 22.3027 17.7274 23.0607 18.1603L24.0887 16.167C22.5324 15.274 20.6027 15.5207 19.345 16.8375L20.864 18.4479Z" fill="#F8F8F8"/>
</svg>
