<svg width="25" height="24" viewBox="0 0 25 24" fill="none" xmlns="http://www.w3.org/2000/svg">
<path d="M4.76758 22.6855C4.32715 22.3525 4.23047 21.8047 4.49902 21.0205L6.74414 14.3389L1.00781 10.2139C0.341797 9.74121 0.0625 9.24707 0.245117 8.70996C0.416992 8.19434 0.921875 7.93652 1.74902 7.94727L8.78516 7.99023L10.9229 1.27637C11.1807 0.481445 11.5674 0.0839844 12.1152 0.0839844C12.6738 0.0839844 13.0605 0.481445 13.3184 1.27637L15.4561 7.99023L22.4922 7.94727C23.3193 7.93652 23.8242 8.19434 23.9961 8.70996C24.168 9.24707 23.8994 9.74121 23.2334 10.2139L17.4971 14.3389L19.7422 21.0205C20.0107 21.8047 19.9141 22.3525 19.4736 22.6855C19.0225 23.0293 18.4746 22.9111 17.8086 22.4277L12.1152 18.249L6.43262 22.4277C5.7666 22.9111 5.20801 23.0293 4.76758 22.6855ZM6.31445 20.5586C6.33594 20.5908 6.36816 20.5693 6.41113 20.5371L11.5781 16.5947C11.9219 16.3262 12.3193 16.3262 12.6631 16.5947L17.8301 20.5371C17.873 20.5693 17.9053 20.5908 17.9268 20.5586C17.9482 20.5371 17.9375 20.5264 17.9268 20.4619L15.7891 14.3174C15.6387 13.8984 15.7246 13.5654 16.1006 13.3076L21.4502 9.6123C21.4932 9.58008 21.5146 9.55859 21.5039 9.52637C21.4932 9.49414 21.4717 9.49414 21.4072 9.49414L14.9082 9.6123C14.4678 9.62305 14.1885 9.44043 14.0488 9L12.1797 2.78027C12.1689 2.71582 12.1475 2.69434 12.1152 2.69434C12.0938 2.69434 12.0723 2.71582 12.0615 2.78027L10.1924 9C10.0527 9.44043 9.77344 9.62305 9.33301 9.6123L2.83398 9.49414C2.76953 9.49414 2.74805 9.49414 2.7373 9.52637C2.72656 9.55859 2.7373 9.58008 2.79102 9.6123L8.14062 13.3076C8.5166 13.5654 8.60254 13.8984 8.45215 14.3174L6.31445 20.4619C6.30371 20.5264 6.29297 20.5371 6.31445 20.5586Z" fill="url(#paint0_linear_133_479)"/>
<defs>
<linearGradient id="paint0_linear_133_479" x1="12.5" y1="5.32895" x2="12.5" y2="20.8947" gradientUnits="userSpaceOnUse">
<stop stop-color="#FE8C00"/>
<stop offset="1" stop-color="#F83600"/>
</linearGradient>
</defs>
</svg>
